<svg width="40" height="40" viewBox="0 0 40 40" fill="none" xmlns="http://www.w3.org/2000/svg">
<g clip-path="url(#clip0_2_128)">
<path d="M13.292 17.3912H9.31689V21.3666H13.292V17.3912Z" fill="white"/>
<path d="M30.6831 17.3912H26.708V21.3666H30.6831V17.3912Z" fill="white"/>
<path d="M24.8862 17.3912H20.9111V21.3666H24.8862V17.3912Z" fill="white"/>
<path d="M13.292 23.6023H9.31689V27.5777H13.292V23.6023Z" fill="white"/>
<path d="M24.8862 23.6023H20.9111V27.5777H24.8862V23.6023Z" fill="white"/>
<path d="M19.0891 23.6023H15.114V27.5777H19.0891V23.6023Z" fill="white"/>
<path d="M30.6831 29.8135H26.708V33.7889H30.6831V29.8135Z" fill="white"/>
<path d="M24.8862 29.8135H20.9111V33.7889H24.8862V29.8135Z" fill="white"/>
<path d="M19.0891 29.8135H15.114V33.7889H19.0891V29.8135Z" fill="white"/>
<path d="M34.3185 4.30046H31.086V7.39968C31.086 8.55609 30.1333 9.49656 28.9623 9.49656H24.7416C23.5707 9.49656 22.6181 8.55609 22.6181 7.39968V4.30046H17.3763V7.37054C17.3763 8.54304 16.4131 9.49656 15.2291 9.49656H11.0554C9.87142 9.49656 8.90821 8.54304 8.90821 7.37054V4.30046H5.67571C3.57368 4.30046 1.86353 5.99515 1.86353 8.07812V36.2223C1.86353 38.3052 3.57368 40 5.67571 40H34.3185C36.4238 40 38.1365 38.3053 38.1365 36.2223V8.07812C38.1365 5.99523 36.4238 4.30046 34.3185 4.30046ZM35.4037 36.149C35.4037 36.8177 34.9544 37.2669 34.2856 37.2669H5.71438C5.04563 37.2669 4.59634 36.8177 4.59634 36.149V13.9132H35.4037V36.149Z" fill="white"/>
<path d="M11.0567 8.00835H15.2279C15.5811 8.00835 15.8685 7.72296 15.8685 7.3721V1.60101C15.8685 0.718203 15.1442 0 14.2539 0H12.0306C11.1403 0 10.4159 0.718125 10.4159 1.60101V7.3721C10.416 7.72296 10.7033 8.00835 11.0567 8.00835Z" fill="white"/>
<path d="M24.7417 8.00835H28.9624C29.3021 8.00835 29.5783 7.7339 29.5783 7.39695V1.57641C29.5783 0.707265 28.8652 0 27.9884 0H25.7157C24.839 0 24.1259 0.707265 24.1259 1.57641V7.39695C24.1258 7.7339 24.4022 8.00835 24.7417 8.00835Z" fill="white"/>
</g>
<defs>
<clipPath id="clip0_2_128">
<rect width="40" height="40" fill="white"/>
</clipPath>
</defs>
</svg>
