<svg width="52" height="52" viewBox="0 0 52 52" fill="none" xmlns="http://www.w3.org/2000/svg">
<path d="M38.8472 33.7188C40.9809 34.8871 42.1996 36.9688 42.0469 39.0504C41.9445 40.3195 41.8941 40.3715 40.2691 40.5746C39.2535 40.7274 32.8542 40.7778 26.2535 40.7778C18.7882 40.7778 10.9687 40.625 10.4097 40.4723C8.17537 39.9133 9.39412 35.8508 12.3402 33.9219C14.625 32.4496 19.2969 30.2153 20.5676 29.9601C22.295 29.6043 22.4981 28.5383 20.5676 25.0851C20.111 24.323 19.6024 21.9879 19.552 19.5504C19.5016 15.5886 20.2637 12.8976 23.7169 11.5781C24.4286 11.3246 25.1387 11.2223 25.7985 11.2223C28.0832 11.2223 30.2169 12.4914 31.0797 14.3715C32.3489 16.8594 31.8419 23.5121 30.5207 25.8993C28.9965 28.5903 29.1492 29.4548 30.8262 29.9114C31.9442 30.2169 35.3974 31.8419 38.8505 33.7204L38.8472 33.7188ZM11.2222 32.1961C10.4097 32.7551 9.64762 33.4653 9.03825 34.177C7.10775 34.177 5.6355 34.1266 5.48275 34.0746C4.21362 33.7691 4.92375 31.434 6.60075 30.4184C7.86987 29.6059 10.4601 28.3368 11.1719 28.184C12.0867 27.9809 12.2899 27.4219 11.1719 25.493C10.9184 25.0868 10.6129 23.7656 10.6129 22.3958C10.5625 20.1614 11.0191 18.6371 12.9496 17.9774C14.5746 17.368 16.4027 18.1301 17.0625 19.5016C17.7222 20.9235 17.368 24.5798 16.6562 25.9009C15.8437 27.4755 15.9965 27.8818 16.9097 28.1353C17.1129 28.1856 17.5191 28.3888 18.0781 28.6439C15.8437 29.5588 12.7969 31.2341 11.2222 32.1994V32.1961ZM44.6371 30.2656C45.8559 30.9254 46.5156 32.0434 46.4149 33.2118C46.3645 33.9235 46.3645 33.9739 45.4496 34.0746C45.1961 34.125 44.0277 34.177 42.5035 34.177C41.8437 33.3141 40.9289 32.5016 39.8125 31.9426C37.7309 30.7239 35.191 29.4028 33.3125 28.5903C33.8211 28.3871 34.2777 28.2344 34.4809 28.184C35.4461 27.9809 35.5989 27.4219 34.4809 25.493C34.2777 25.0868 33.9219 23.7656 33.9219 22.3958C33.8715 20.1614 34.2777 18.6371 36.2066 17.9774C37.882 17.368 39.7101 18.1301 40.3195 19.5016C40.9792 20.9235 40.7257 24.5798 40.014 25.9009C39.2015 27.4755 39.3022 27.8818 40.1667 28.1353C40.7761 28.3384 42.7066 29.2533 44.6355 30.2689L44.6371 30.2656Z" fill="white" stroke="white"/>
</svg>
