<svg width="61" height="61" viewBox="0 0 61 61" fill="none" xmlns="http://www.w3.org/2000/svg">
<path fill-rule="evenodd" clip-rule="evenodd" d="M28.0028 48.2917C27.0944 48.2917 26.3195 47.6173 26.1715 46.698C26.0353 45.9543 25.5133 45.3466 24.811 45.1146C24.2388 44.913 23.6793 44.6754 23.1358 44.4029C22.489 44.0636 21.7132 44.1144 21.1136 44.5351C20.3881 45.0701 19.3915 44.9872 18.7594 44.3394L16.3011 41.818C15.6395 41.1394 15.5536 40.0696 16.0979 39.2891C16.5177 38.66 16.5782 37.849 16.2565 37.1617C16.0446 36.6844 15.8576 36.1956 15.6965 35.6977C15.4657 34.9131 14.8286 34.3254 14.0435 34.1727C13.0969 34.0177 12.398 33.1837 12.3906 32.2004V29.0462C12.3856 27.9128 13.1838 26.9434 14.274 26.7586C15.1011 26.5973 15.7918 26.0162 16.1078 25.2159C16.202 24.9905 16.3011 24.7668 16.4052 24.5449C16.8256 23.7148 16.7675 22.7151 16.254 21.9422C15.6119 21.0269 15.7105 19.7693 16.487 18.971L18.2935 17.1181C19.1846 16.2039 20.5898 16.0856 21.6142 16.8385L21.6712 16.8792C22.4362 17.4072 23.4096 17.5029 24.2584 17.1334C25.1664 16.7981 25.8358 15.9978 26.0203 15.0263L26.0452 14.9399C26.2491 13.6537 27.3321 12.7088 28.6026 12.7083H30.7834C32.088 12.7077 33.2015 13.6756 33.415 14.9958L33.4547 15.1737C33.6298 16.1044 34.2645 16.8747 35.1299 17.2071C35.9641 17.5743 36.9233 17.4784 37.6726 16.9529L37.7964 16.8614C38.8473 16.0845 40.2925 16.204 41.2088 17.1435L42.8716 18.8515C43.705 19.711 43.8097 21.0626 43.1194 22.0464C42.5785 22.8687 42.5096 23.9253 42.9384 24.8143L43.0452 25.0684C43.3924 25.9364 44.1439 26.5655 45.0424 26.7409C46.2169 26.9373 47.0806 27.9759 47.0844 29.1961V32.025C47.0841 33.1011 46.3252 34.0192 45.2902 34.1956C44.439 34.3631 43.7456 34.9952 43.4836 35.8426C43.3679 36.1814 43.2391 36.5204 43.097 36.8592C42.7663 37.6039 42.8398 38.4717 43.2904 39.1467C43.8849 39.9951 43.7927 41.1605 43.0724 41.8994L40.7653 44.2682C40.1055 44.9448 39.0649 45.032 38.307 44.4741C37.6741 44.0305 36.8544 43.9817 36.1758 44.347C35.6921 44.5928 35.1957 44.8108 34.6889 45.0002C33.9801 45.2511 33.4575 45.8733 33.321 46.6294C33.1764 47.5808 32.3811 48.2845 31.4425 48.2917H28.0028Z" stroke="white" stroke-width="1.5" stroke-linecap="round" stroke-linejoin="round"/>
<path fill-rule="evenodd" clip-rule="evenodd" d="M35.519 30.5C35.519 33.7749 32.9306 36.4297 29.7375 36.4297C26.5444 36.4297 23.9561 33.7749 23.9561 30.5C23.9561 27.225 26.5444 24.5703 29.7375 24.5703C32.9306 24.5703 35.519 27.225 35.519 30.5Z" stroke="white" stroke-width="1.5" stroke-linecap="round" stroke-linejoin="round"/>
</svg>
